<svg xmlns="http://www.w3.org/2000/svg" width="600" height="400" viewBox="0 0 600 400"><rect width="100%" height="100%" fill="#DDDDDD"/><path fill="#999999" d="M130.115 217.375h-8.77v-36.42h5.36q1.7 0 2.24 1.59l.56 2.7q.96-1.06 2.01-1.95t2.24-1.53q1.18-.64 2.55-1.01t3-.37q3.44 0 5.66 1.86 2.22 1.87 3.32 4.95.85-1.81 2.13-3.1 1.28-1.3 2.81-2.11 1.52-.82 3.25-1.21 1.72-.39 3.46-.39 3.01 0 5.36.92 2.34.92 3.94 2.7 1.6 1.77 2.43 4.33t.83 5.86v23.18h-8.76v-23.18q0-3.48-1.53-5.24t-4.47-1.76q-1.35 0-2.51.47-1.15.46-2.02 1.33t-1.37 2.18q-.49 1.31-.49 3.02v23.18h-8.81v-23.18q0-3.66-1.47-5.33t-4.31-1.67q-1.92 0-3.57.95-1.65.94-3.07 2.57zm69.93-9.41v-6.14q-3.8.18-6.39.66t-4.15 1.22q-1.56.75-2.24 1.74-.67 1-.67 2.17 0 2.3 1.36 3.3 1.37.99 3.57.99 2.7 0 4.67-.97 1.97-.98 3.85-2.97m-18.53-19.13-1.56-2.81q6.28-5.75 15.12-5.75 3.2 0 5.72 1.05t4.26 2.91 2.64 4.46q.91 2.59.91 5.68v23h-3.98q-1.24 0-1.92-.37-.67-.38-1.06-1.51l-.78-2.63q-1.39 1.24-2.7 2.18-1.31.95-2.73 1.58-1.42.64-3.04.98-1.61.34-3.57.34-2.3 0-4.26-.62-1.95-.62-3.37-1.87-1.42-1.24-2.2-3.09-.78-1.84-.78-4.29 0-1.39.46-2.75.46-1.37 1.51-2.61t2.72-2.34q1.66-1.11 4.1-1.92 2.43-.82 5.66-1.33 3.23-.52 7.38-.62v-2.13q0-3.66-1.56-5.42t-4.51-1.76q-2.13 0-3.53.5t-2.47 1.12q-1.06.62-1.93 1.12t-1.94.5q-.92 0-1.56-.48t-1.03-1.12m59.53-3.94-1.98 3.16q-.36.56-.75.8-.39.23-.99.23-.64 0-1.37-.36-.73-.35-1.69-.8-.95-.44-2.18-.8-1.22-.35-2.89-.35-2.59 0-4.07 1.1-1.47 1.1-1.47 2.87 0 1.18.76 1.98.77.79 2.03 1.4 1.26.6 2.85 1.08 1.6.48 3.25 1.05t3.25 1.29q1.6.73 2.86 1.85t2.02 2.68.76 3.76q0 2.63-.94 4.85t-2.78 3.83q-1.85 1.62-4.56 2.52-2.72.91-6.27.91-1.88 0-3.67-.34-1.8-.34-3.45-.94t-3.05-1.42-2.47-1.78l2.03-3.33q.39-.61.92-.93.53-.31 1.35-.31.81 0 1.54.46t1.69.99 2.25.99q1.3.47 3.29.47 1.56 0 2.68-.38 1.11-.37 1.84-.97.73-.61 1.07-1.4.33-.8.33-1.66 0-1.27-.76-2.09t-2.02-1.42-2.88-1.08q-1.61-.48-3.3-1.05t-3.3-1.33q-1.62-.76-2.88-1.94-1.26-1.17-2.02-2.87-.76-1.71-.76-4.12 0-2.24.88-4.26.89-2.02 2.61-3.53 1.73-1.51 4.3-2.42 2.57-.9 5.95-.9 3.76 0 6.85 1.24t5.14 3.27m35.4.57-2.31 3.19q-.39.5-.76.78-.38.29-1.09.29-.67 0-1.31-.41t-1.53-.93q-.88-.51-2.11-.92-1.22-.41-3.03-.41-2.31 0-4.05.84-1.74.83-2.89 2.39-1.16 1.57-1.73 3.78-.56 2.22-.56 5.03 0 2.91.62 5.18t1.79 3.82q1.17 1.54 2.84 2.34t3.76.8q2.1 0 3.39-.52 1.3-.51 2.19-1.13.88-.62 1.54-1.14.66-.51 1.47-.51 1.07 0 1.6.81l2.52 3.2q-1.45 1.7-3.16 2.86-1.7 1.15-3.53 1.84t-3.76.98q-1.94.28-3.85.28-3.38 0-6.36-1.26t-5.22-3.67q-2.23-2.42-3.53-5.91-1.29-3.5-1.29-7.97 0-4.01 1.15-7.44t3.39-5.93 5.54-3.92 7.59-1.42q4.09 0 7.16 1.31 3.07 1.32 5.52 3.77m21.94-5.08q4.04 0 7.36 1.31 3.32 1.32 5.68 3.73t3.64 5.89 1.28 7.78q0 4.33-1.28 7.81t-3.64 5.93-5.68 3.76-7.36 1.31q-4.09 0-7.42-1.31-3.34-1.31-5.7-3.76t-3.66-5.93q-1.29-3.48-1.29-7.81 0-4.3 1.29-7.78 1.3-3.48 3.66-5.89t5.7-3.73q3.33-1.31 7.42-1.31m0 30.78q4.54 0 6.72-3.06 2.19-3.05 2.19-8.94t-2.19-8.98q-2.18-3.09-6.72-3.09-4.62 0-6.84 3.1-2.22 3.11-2.22 8.97t2.22 8.93 6.84 3.07m36.81 6.78q-4.76 0-7.29-2.68-2.54-2.68-2.54-7.4v-20.35h-3.73q-.71 0-1.21-.46-.49-.46-.49-1.38v-3.48l5.85-.96 1.85-9.94q.18-.71.67-1.1.5-.39 1.28-.39h4.55v11.47h9.72v6.24h-9.72v19.74q0 1.71.83 2.66.83.96 2.29.96.82 0 1.37-.19.55-.2.95-.41.41-.21.73-.41.32-.19.64-.19.39 0 .64.19.25.2.53.59l2.63 4.26q-1.92 1.59-4.4 2.41-2.49.82-5.15.82m12.99-5.4q0-1.1.41-2.09.41-1 1.12-1.71t1.7-1.13q1-.43 2.13-.43 1.14 0 2.12.43.97.42 1.7 1.13t1.15 1.71q.43.99.43 2.09 0 1.14-.43 2.11-.42.98-1.15 1.69t-1.7 1.12q-.98.41-2.12.41-1.13 0-2.13-.41-.99-.41-1.7-1.12t-1.12-1.69q-.41-.97-.41-2.11m26.91-20.94v16.33q1.49 1.81 3.25 2.55 1.76.75 3.82.75 1.98 0 3.58-.75 1.6-.74 2.72-2.27t1.72-3.85q.6-2.33.6-5.49 0-3.19-.51-5.41-.52-2.22-1.47-3.6-.96-1.39-2.33-2.03t-3.11-.64q-2.73 0-4.65 1.16-1.91 1.15-3.62 3.25m-1.17-9.06.71 3.38q2.24-2.52 5.08-4.09 2.84-1.56 6.67-1.56 2.98 0 5.45 1.24 2.47 1.25 4.26 3.61t2.77 5.82.98 7.93q0 4.09-1.1 7.57-1.11 3.47-3.15 6.03t-4.93 3.99q-2.89 1.44-6.48 1.44-3.05 0-5.22-.94-2.16-.94-3.87-2.61v14.91h-8.77v-48.31h5.36q1.71 0 2.24 1.59m40.33 0 .6 2.88q1.1-1.1 2.33-2.04 1.22-.94 2.59-1.6t2.93-1.03 3.41-.37q2.98 0 5.29 1.01 2.3 1.01 3.85 2.84 1.54 1.83 2.34 4.37t.8 5.59v23.18h-8.77v-23.18q0-3.34-1.53-5.17-1.52-1.83-4.65-1.83-2.27 0-4.26 1.03-1.98 1.03-3.76 2.81v26.34h-8.77v-36.42h5.36q1.71 0 2.24 1.59m45.76 15.73q1.63 0 2.84-.44 1.21-.45 2-1.23.8-.78 1.21-1.88t.41-2.41q0-2.7-1.62-4.28-1.61-1.58-4.84-1.58t-4.85 1.58q-1.61 1.58-1.61 4.28 0 1.27.41 2.38.4 1.1 1.2 1.89.8.8 2.03 1.25 1.22.44 2.82.44m9.9 20.73q0-1.06-.64-1.74-.64-.67-1.74-1.04-1.1-.38-2.57-.55-1.47-.18-3.12-.27t-3.41-.16-3.43-.28q-1.45.81-2.36 1.91-.9 1.1-.9 2.56 0 .96.48 1.79.48.84 1.52 1.44 1.05.6 2.72.94t4.08.34q2.45 0 4.23-.38 1.77-.37 2.92-1.02 1.16-.66 1.69-1.57.53-.9.53-1.97m-1.74-36.81h10.48v3.27q0 1.56-1.89 1.91l-3.26.61q.74 1.88.74 4.11 0 2.7-1.08 4.89-1.08 2.18-3 3.7-1.92 1.53-4.52 2.37-2.61.83-5.63.83-1.07 0-2.06-.11-.99-.1-1.95-.28-1.71 1.03-1.71 2.31 0 1.1 1.01 1.61 1.02.52 2.68.73 1.67.21 3.8.27 2.13.05 4.37.23 2.24.17 4.37.62 2.13.44 3.79 1.4 1.67.96 2.68 2.61 1.02 1.65 1.02 4.24 0 2.42-1.19 4.69t-3.45 4.05q-2.25 1.77-5.53 2.85-3.29 1.09-7.48 1.09-4.11 0-7.17-.8-3.05-.8-5.07-2.13-2.03-1.33-3.02-3.07-1-1.74-1-3.62 0-2.56 1.55-4.28 1.54-1.72 4.24-2.75-1.45-.75-2.31-1.99-.85-1.24-.85-3.27 0-.81.3-1.68t.89-1.73q.59-.85 1.47-1.61.89-.76 2.1-1.37-2.77-1.49-4.35-3.97-1.58-2.49-1.58-5.83 0-2.69 1.08-4.88 1.09-2.18 3.02-3.72 1.93-1.55 4.58-2.37 2.64-.81 5.77-.81 2.34 0 4.4.48t3.76 1.4"/></svg>